<svg xmlns="http://www.w3.org/2000/svg" width="1280" height="700" viewBox="0 0 1280 700" role="img" aria-labelledby="title desc">
  <title id="title">Notebook 7 Linear Score Demo</title>
  <desc id="desc">Notebook 7 CKKS linear score demo with client-side feature preparation and server-side weighted sums.</desc>
  <defs>
    <linearGradient id="bg" x1="0" x2="1" y1="0" y2="1"><stop offset="0%" stop-color="#f8fafc"/><stop offset="100%" stop-color="#fff7ed"/></linearGradient>
    <filter id="shadow" x="-10%" y="-15%" width="120%" height="140%"><feDropShadow dx="0" dy="10" stdDeviation="9" flood-color="#0f172a" flood-opacity=".13"/></filter>
    <marker id="arrow" markerWidth="14" markerHeight="14" refX="10" refY="5" orient="auto"><path d="M0,0 L10,5 L0,10 Z" fill="#475569"/></marker>
    <style>.title{font:800 32px ui-sans-serif,system-ui;fill:#172033}.sub{font:400 15px ui-sans-serif,system-ui;fill:#64748b}.h{font:800 18px ui-sans-serif,system-ui;fill:#111827}.t{font:500 14px ui-sans-serif,system-ui;fill:#475569}.line{stroke:#64748b;stroke-width:2.4;fill:none;marker-end:url(#arrow)}</style>
  </defs>
  <rect width="1280" height="700" fill="url(#bg)"/>
  <text class="title" x="60" y="64">Notebook 7 Linear Score Demo</text>
  <text class="sub" x="60" y="92">This is encrypted weighted-sum inference only. RandomForest remains client/trusted analytics.</text>

  <g filter="url(#shadow)">
    <rect x="74" y="178" width="184" height="86" rx="8" fill="#ecfdf5" stroke="#86efac"/>
    <text class="h" x="94" y="208">Client model</text>
    <text class="t" x="94" y="234">weights, bias</text>
    <text class="t" x="94" y="254">scaler metadata</text>

    <rect x="318" y="178" width="190" height="86" rx="8" fill="#ecfdf5" stroke="#86efac"/>
    <text class="h" x="338" y="208">Feature vectors</text>
    <text class="t" x="338" y="234">scaled numeric values</text>
    <text class="t" x="338" y="254">local plaintext only</text>

    <rect x="568" y="178" width="184" height="86" rx="8" fill="#fff7ed" stroke="#fdba74"/>
    <text class="h" x="588" y="208">Encrypt</text>
    <text class="t" x="588" y="234">score_features/*.bin</text>
    <text class="t" x="588" y="254">score_manifest.csv</text>

    <rect x="812" y="178" width="202" height="86" rx="8" fill="#eff6ff" stroke="#93c5fd"/>
    <text class="h" x="832" y="208">server_linear_score</text>
    <text class="t" x="832" y="234">feature * weight</text>
    <text class="t" x="832" y="254">add bias</text>

    <rect x="1074" y="178" width="158" height="86" rx="8" fill="#ffffff" stroke="#cbd5e1"/>
    <text class="h" x="1094" y="208">Client result</text>
    <text class="t" x="1094" y="234">score table</text>
    <text class="t" x="1094" y="254">optional sigmoid</text>
  </g>
  <path class="line" d="M258 221 H310"/><path class="line" d="M508 221 H560"/><path class="line" d="M752 221 H804"/><path class="line" d="M1014 221 H1066"/>

  <rect x="112" y="388" width="1056" height="122" rx="8" fill="#fff1f2" stroke="#fecdd3"/>
  <text class="h" x="138" y="424">RandomForest note</text>
  <text class="t" x="138" y="452">The notebook mentions RandomForest feature importance. That is not implemented as server-side HE.</text>
  <text class="t" x="138" y="478">Tree training and branching inference need comparisons and split logic that are not practical in this CKKS aggregate path.</text>
  <text class="t" x="138" y="504">Use this linear demo only to test encrypted inference plumbing.</text>
</svg>
